<svg width="80" height="72" viewBox="0 0 80 72" fill="none" xmlns="http://www.w3.org/2000/svg">
<path d="M4.27724 17.8434C7.03692 19.1025 10.8065 20.3615 15.5806 21.1127C20.3547 21.8692 25.6256 22.3718 31.1558 22.3718C36.6806 22.3718 41.9569 22.1178 46.731 21.1127C51.4997 20.3561 55.2693 19.3564 58.0344 17.8434C60.7941 16.5897 62.0524 15.082 62.0524 13.3204V9.05138C62.0524 7.53831 60.7941 6.03065 58.0344 4.52299C54.4299 2.93152 50.6281 1.83191 46.731 1.25368C41.9569 0.49715 36.6806 0 31.1558 0C25.6256 0 20.3547 0.248575 15.5806 1.25368C11.6835 1.83191 7.88166 2.93152 4.27724 4.52299C1.51216 5.78208 0.00540049 7.28974 0.00540049 9.04598V13.5744C0.00540049 15.082 1.51216 16.5897 4.27184 17.8434H4.27724ZM30.1459 42.2254C24.4192 42.2559 18.7022 41.7511 13.0693 40.7177C7.53917 39.7126 3.27274 38.2049 0 36.4487V42.2308C0 43.733 1.25833 45.2461 4.02341 46.7538C6.7885 48.0074 10.5581 49.2665 15.3268 50.0177C19.5986 50.7742 24.3727 51.0228 29.3952 51.2767V48.764C29.3687 46.5611 29.6228 44.3639 30.1513 42.2254H30.1459ZM13.0693 55.3026C7.53917 54.2921 3.27274 52.7844 0 51.0228V56.8048C0 58.3179 1.25833 59.8202 4.02341 61.3278C6.7885 62.5869 10.5581 63.846 15.3268 64.5971C20.1009 65.3537 25.3718 65.8562 30.902 65.8562H35.4222C33.3004 63.2456 31.6832 60.2622 30.6536 57.0588C24.3727 56.8048 18.5941 56.0537 13.0693 55.2972V55.3026ZM39.4457 27.3973C36.6806 27.6459 33.9155 27.6459 30.902 27.6459C24.6211 27.6459 18.5941 27.1433 13.0693 26.1382C7.53917 25.1331 3.27274 23.6255 0 21.8692V27.6513C0 29.1589 1.25833 30.6666 4.02341 32.1743C6.7885 33.428 10.5581 34.687 15.3268 35.4382C20.1009 36.1947 25.3718 36.6973 30.902 36.6973H32.1603C33.9305 33.1332 36.4097 29.9686 39.4457 27.3973ZM73.3611 31.6663C68.9124 27.1833 62.866 24.6523 56.5522 24.63C50.2384 24.6077 44.1744 27.096 39.6941 31.5474C35.2138 35.9989 32.6843 42.0489 32.662 48.3665C32.6397 54.6841 35.1265 60.7518 39.5753 65.2348C44.048 69.5985 50.0558 72.0282 56.3027 71.9998C62.5497 71.9713 68.5351 69.487 72.968 65.0826C77.4008 60.6783 79.9259 54.707 79.9984 48.4566C80.0709 42.2063 77.6852 36.1779 73.3557 31.6717L73.3611 31.6663ZM62.0524 54.546C59.5411 57.0588 57.7859 59.5716 56.5276 61.8304C55.2693 59.5716 53.2603 57.0588 50.9974 54.546C48.8393 52.3701 46.387 50.5074 43.7121 49.0125C45.9803 47.7589 48.4862 45.7486 51.0028 43.4844C53.5087 40.9717 55.2693 38.4589 56.5276 36.1947C57.7805 38.4589 59.7895 40.9717 62.0524 43.4844C64.5636 45.9972 67.0749 47.7535 69.3377 49.0125C66.8265 50.0177 64.3152 52.0279 62.0524 54.546Z" fill="#E1B43F"/>
</svg>
