<svg width="52" height="49" viewBox="0 0 52 49" fill="none" xmlns="http://www.w3.org/2000/svg">
<path d="M34.5642 14.7554L34.6806 14.991L34.9406 15.0288L48.3631 16.9771L48.3633 16.9771C48.8727 17.0509 49.3526 17.2611 49.7523 17.5855C50.152 17.9098 50.4566 18.3362 50.6337 18.8194C50.8109 19.3027 50.8541 19.8249 50.7587 20.3307C50.6639 20.8334 50.4358 21.3012 50.0983 21.6854L49.938 21.8524L40.2345 31.298L40.046 31.4815L40.0905 31.7409L42.383 45.0948L42.383 45.0949C42.4703 45.6027 42.4185 46.1246 42.2331 46.6053C42.0477 47.086 41.7356 47.5076 41.33 47.8253C40.9244 48.143 40.4404 48.345 39.9292 48.4098C39.4209 48.4743 38.9046 48.4007 38.4346 48.1969L38.2352 48.1012L26.2324 41.7996L25.9999 41.6776L25.7675 41.7996L13.7566 48.1069L13.7565 48.107C13.2997 48.347 12.7863 48.4588 12.2711 48.4302C11.7558 48.4017 11.2579 48.234 10.8303 47.945C10.4028 47.656 10.0616 47.2565 9.84311 46.789C9.62589 46.3242 9.53797 45.8096 9.58852 45.2992L9.61817 45.0889L11.9094 31.7423L11.9539 31.483L11.7654 31.2994L2.05589 21.8481C2.05585 21.848 2.05582 21.848 2.05579 21.848C1.68606 21.4878 1.42091 21.0342 1.28856 20.5353C1.15619 20.0364 1.1616 19.5109 1.30421 19.0148C1.44682 18.5188 1.7213 18.0706 2.09841 17.7182C2.47362 17.3675 2.93647 17.1246 3.43812 17.015L3.64563 16.9773L17.0593 15.0302L17.3193 14.9925L17.4357 14.7569L23.4411 2.60169L23.4413 2.60144C23.7187 2.03915 24.1735 1.58385 24.7356 1.3059L24.8123 1.26792C25.4411 0.980314 26.1539 0.930338 26.8181 1.12918C27.5068 1.33533 28.0922 1.79371 28.4575 2.41255L28.5626 2.608L34.5642 14.7554ZM5.89366 20.8728L15.581 30.3041L13.2922 43.6306L13.1207 44.6288L14.0174 44.1579L25.9999 37.8648L37.9825 44.1579L38.8792 44.6288L38.7077 43.6306L36.4189 30.3041L46.1062 20.8728L46.8328 20.1655L45.8293 20.0198L32.4408 18.0757L26.4482 5.94747L26 5.04035L25.5517 5.94743L19.5576 18.0759L6.17059 20.0198L5.1671 20.1655L5.89366 20.8728Z" fill="#EFF30C" stroke="#EFF30C"/>
</svg>
