<svg width="42" height="42" viewBox="0 0 42 42" fill="none" xmlns="http://www.w3.org/2000/svg">
<path d="M36.0088 2.23116L21 17.2393L5.98965 2.2296C4.951 1.191 3.26221 1.18875 2.22808 2.23116C1.20035 3.26714 1.18676 4.95413 2.23039 5.99025C2.23066 5.99052 2.23093 5.9908 2.23121 5.99107L17.24 20.9992L2.22964 36.0088C1.19125 37.0472 1.18873 38.7354 2.23042 39.7695C2.74499 40.2836 3.42661 40.55 4.10965 40.55C4.78842 40.55 5.47287 40.293 5.99129 39.7671C5.99178 39.7666 5.99226 39.7661 5.99275 39.7656L21 24.7591L36.0104 39.7687C36.525 40.2834 37.207 40.55 37.8904 40.55C38.5691 40.55 39.2535 40.2931 39.7719 39.7672C40.8089 38.7286 40.8107 37.0414 39.7693 36.0078C39.7691 36.0076 39.769 36.0074 39.7688 36.0073L24.76 20.9992L39.7704 5.98951C40.809 4.9509 40.8113 3.26213 39.7688 2.22804C38.7329 1.20048 37.0461 1.18678 36.01 2.23C36.0096 2.23039 36.0092 2.23078 36.0088 2.23116Z" fill="#E93838" stroke="#E53737" stroke-width="1.1"/>
</svg>
