<svg width="22" height="20" viewBox="0 0 22 20" fill="none" xmlns="http://www.w3.org/2000/svg">
<path d="M1.17624 4.95649C1.93515 5.30624 2.97179 5.65599 4.28467 5.86463C5.59754 6.07478 7.04705 6.21438 8.56785 6.21438C10.0872 6.21438 11.5382 6.14383 12.851 5.86463C14.1624 5.65448 15.1991 5.37679 15.9595 4.95649C16.7184 4.60825 17.0644 4.18945 17.0644 3.70011V2.51427C17.0644 2.09398 16.7184 1.67518 15.9595 1.25639C14.9682 0.81431 13.9227 0.508864 12.851 0.348245C11.5382 0.138097 10.0872 0 8.56785 0C7.04705 0 5.59754 0.0690486 4.28467 0.348245C3.21295 0.508864 2.16746 0.81431 1.17624 1.25639C0.415843 1.60613 0.00148513 2.02493 0.00148513 2.51277V3.77066C0.00148513 4.18945 0.415843 4.60825 1.17476 4.95649H1.17624ZM8.29012 11.7293C6.71528 11.7377 5.14311 11.5975 3.59407 11.3105C2.07327 11.0313 0.900002 10.6125 0 10.1246V11.7308C0 12.1481 0.34604 12.5684 1.10644 12.9872C1.86684 13.3354 2.90347 13.6851 4.21486 13.8938C5.38962 14.1039 6.70249 14.173 8.08369 14.2435V13.5455C8.0764 12.9337 8.14627 12.3233 8.29161 11.7293H8.29012ZM3.59407 15.3618C2.07327 15.0811 0.900002 14.6623 0 14.173V15.7791C0 16.1994 0.34604 16.6167 1.10644 17.0355C1.86684 17.3853 2.90347 17.735 4.21486 17.9436C5.52774 18.1538 6.97725 18.2934 8.49804 18.2934H9.74112C9.15761 17.5682 8.71289 16.7395 8.42973 15.8497C6.70249 15.7791 5.11338 15.5705 3.59407 15.3603V15.3618ZM10.8476 7.61036C10.0872 7.67941 9.32676 7.67941 8.49804 7.67941C6.77081 7.67941 5.11338 7.53981 3.59407 7.26062C2.07327 6.98142 0.900002 6.56262 0 6.07478V7.68091C0 8.09971 0.34604 8.5185 1.10644 8.9373C1.86684 9.28554 2.90347 9.63529 4.21486 9.84394C5.52774 10.0541 6.97725 10.1937 8.49804 10.1937H8.84408C9.3309 9.20368 10.0127 8.3246 10.8476 7.61036V7.61036ZM20.1743 8.7962C18.9509 7.55093 17.2882 6.84786 15.5519 6.84167C13.8156 6.83547 12.148 7.52666 10.9159 8.76318C9.68379 9.99969 8.98818 11.6802 8.98205 13.4351C8.97592 15.19 9.65979 16.8755 10.8832 18.1208C12.1132 19.3329 13.7653 20.0078 15.4833 19.9999C17.2012 19.992 18.8472 19.3019 20.0662 18.0785C21.2852 16.8551 21.9796 15.1964 21.9996 13.4602C22.0195 11.724 21.3634 10.0494 20.1728 8.7977L20.1743 8.7962ZM17.0644 15.1517C16.3738 15.8497 15.8911 16.5477 15.5451 17.1751C15.1991 16.5477 14.6466 15.8497 14.0243 15.1517C13.4308 14.5472 12.7564 14.0298 12.0208 13.6146C12.6446 13.2664 13.3337 12.708 14.0258 12.079C14.7149 11.381 15.1991 10.683 15.5451 10.0541C15.8896 10.683 16.4421 11.381 17.0644 12.079C17.755 12.777 18.4456 13.2648 19.0679 13.6146C18.3773 13.8938 17.6867 14.4522 17.0644 15.1517Z" fill="#F9F9F9"/>
</svg>
