<svg width="46" height="52" viewBox="0 0 46 52" fill="none" xmlns="http://www.w3.org/2000/svg">
<g id="left arrow">
<g id="left arrow_2">
<path d="M24.2832 5.58332L6.66658 26L24.3999 46.4166C24.9832 47.1166 24.9832 48.2833 24.1666 48.8666C23.4666 49.45 22.2999 49.45 21.7166 48.6333L3.04992 27.1666C2.81658 26.8166 2.58325 26.4666 2.58325 26C2.58325 25.5333 2.69992 25.1833 3.04992 24.8333L21.7166 3.24999C22.2999 2.54999 23.4666 2.43332 24.1666 3.01665C24.8666 3.71665 24.9832 4.88332 24.2832 5.58332Z" fill="white" fill-opacity="0.8"/>
<path d="M25.1681 45.7765L25.1616 45.7686L25.1549 45.7609L7.98925 25.9978L25.019 6.26133C26.1567 5.08961 25.8702 3.30602 24.8737 2.30955L24.8416 2.27747L24.8068 2.24843C23.6768 1.30677 21.8867 1.49308 20.955 2.60189L2.31501 24.1544C2.07071 24.4048 1.87811 24.686 1.75199 25.0139C1.62283 25.3497 1.58325 25.6832 1.58325 26C1.58325 26.775 1.96811 27.3488 2.18742 27.6759C2.19797 27.6916 2.20814 27.7068 2.21787 27.7213L2.25335 27.7746L2.29531 27.8228L20.9341 49.2575C21.9238 50.5881 23.7351 50.5013 24.7776 49.6588C26.1346 48.6621 26.0356 46.8174 25.1681 45.7765Z" stroke="white" stroke-opacity="0.8" stroke-width="2"/>
</g>
<g id="left arrow_3">
<path d="M21.7167 27.1666C21.4833 26.8166 21.25 26.4666 21.25 26C21.25 25.5333 21.3667 25.1833 21.7167 24.8333L40.3833 3.24999C40.9667 2.54999 42.1333 2.43332 42.8333 3.01665C43.5333 3.59999 43.65 4.76665 43.0667 5.46665L25.3333 26L43.0667 46.4166C43.65 47.1166 43.65 48.2833 42.8333 48.8666C42.1333 49.45 40.9667 49.45 40.3833 48.6333L21.7167 27.1666Z" fill="white" fill-opacity="0.4"/>
<path d="M20.8846 27.7213L20.9201 27.7746L20.9621 27.8228L39.6009 49.2575C40.5906 50.5881 42.4018 50.5012 43.4443 49.6589C44.8013 48.6621 44.7023 46.8174 43.8349 45.7765L43.8283 45.7686L43.8216 45.7609L26.6563 25.9981L43.8235 6.12027L43.8293 6.11361L43.8349 6.10684C44.7788 4.97416 44.5894 3.17829 43.4735 2.24843C42.3435 1.30675 40.5534 1.49309 39.6217 2.60196L20.9818 24.1544C20.7375 24.4048 20.5449 24.686 20.4187 25.0139C20.2896 25.3497 20.25 25.6832 20.25 26C20.25 26.775 20.6349 27.3488 20.8542 27.6758C20.8647 27.6916 20.8749 27.7068 20.8846 27.7213Z" stroke="white" stroke-opacity="0.4" stroke-width="2"/>
</g>
</g>
</svg>
