<svg width="44" height="40" viewBox="0 0 44 40" fill="none" xmlns="http://www.w3.org/2000/svg">
<path d="M2.35248 9.91299C3.87031 10.6125 5.94358 11.312 8.56933 11.7293C11.1951 12.1496 14.0941 12.4288 17.1357 12.4288C20.1743 12.4288 23.0763 12.2877 25.7021 11.7293C28.3248 11.309 30.3981 10.7536 31.9189 9.91299C33.4367 9.21649 34.1288 8.37891 34.1288 7.40022V5.02854C34.1288 4.18795 33.4367 3.35036 31.9189 2.51277C29.9365 1.62862 27.8455 1.01773 25.7021 0.696491C23.0763 0.276195 20.1743 0 17.1357 0C14.0941 0 11.1951 0.138097 8.56933 0.696491C6.42591 1.01773 4.33491 1.62862 2.35248 2.51277C0.831685 3.21226 0.00297027 4.04985 0.00297027 5.02554V7.54131C0.00297027 8.37891 0.831685 9.21649 2.34951 9.91299H2.35248ZM16.5802 23.4585C13.4306 23.4755 10.2862 23.1951 7.18814 22.6209C4.14655 22.0625 1.8 21.225 0 20.2493V23.4615C0 24.2961 0.692081 25.1367 2.21288 25.9743C3.73367 26.6708 5.80695 27.3703 8.42973 27.7876C10.7792 28.2079 13.405 28.346 16.1674 28.4871V27.0911C16.1528 25.8673 16.2925 24.6466 16.5832 23.4585H16.5802ZM7.18814 30.7237C4.14655 30.1623 1.8 29.3247 0 28.346V31.5582C0 32.3988 0.692081 33.2334 2.21288 34.071C3.73367 34.7705 5.80695 35.47 8.42973 35.8873C11.0555 36.3076 13.9545 36.5868 16.9961 36.5868H19.4822C18.3152 35.1364 17.4258 33.479 16.8595 31.6993C13.405 31.5582 10.2268 31.1409 7.18814 30.7206V30.7237ZM21.6951 15.2207C20.1743 15.3588 18.6535 15.3588 16.9961 15.3588C13.5416 15.3588 10.2268 15.0796 7.18814 14.5212C4.14655 13.9628 1.8 13.1252 0 12.1496V15.3618C0 16.1994 0.692081 17.037 2.21288 17.8746C3.73367 18.5711 5.80695 19.2706 8.42973 19.6879C11.0555 20.1082 13.9545 20.3874 16.9961 20.3874H17.6882C18.6618 18.4074 20.0253 16.6492 21.6951 15.2207V15.2207ZM40.3486 17.5924C37.9018 15.1019 34.5763 13.6957 31.1037 13.6833C27.6311 13.6709 24.2959 15.0533 21.8317 17.5264C19.3676 19.9994 17.9764 23.3605 17.9641 26.8703C17.9518 30.38 19.3196 33.751 21.7664 36.2415C24.2264 38.6658 27.5307 40.0157 30.9665 39.9999C34.4023 39.984 37.6943 38.6039 40.1324 36.157C42.5705 33.7102 43.9592 30.3928 43.9991 26.9203C44.039 23.4479 42.7268 20.0988 40.3457 17.5954L40.3486 17.5924ZM34.1288 30.3034C32.7476 31.6993 31.7823 33.0953 31.0902 34.3502C30.3981 33.0953 29.2931 31.6993 28.0486 30.3034C26.8616 29.0945 25.5128 28.0597 24.0416 27.2292C25.2892 26.5327 26.6674 25.4159 28.0516 24.158C29.4298 22.762 30.3981 21.3661 31.0902 20.1082C31.7793 21.3661 32.8842 22.762 34.1288 24.158C35.51 25.554 36.8912 26.5297 38.1357 27.2292C36.7546 27.7876 35.3734 28.9044 34.1288 30.3034Z" fill="#E83838"/>
</svg>
