<svg width="46" height="52" viewBox="0 0 46 52" fill="none" xmlns="http://www.w3.org/2000/svg">
<g id="right arrow">
<g id="right arrow_2">
<path d="M21.717 5.58332L39.3337 26L21.6003 46.4166C21.017 47.1166 21.017 48.2833 21.8337 48.8666C22.5337 49.45 23.7003 49.45 24.2837 48.6333L42.9503 27.1666C43.1837 26.8166 43.417 26.4667 43.417 26C43.417 25.5333 43.3003 25.1833 42.9503 24.8333L24.2837 3.24999C23.7003 2.54999 22.5337 2.43332 21.8337 3.01665C21.1337 3.71665 21.017 4.88332 21.717 5.58332Z" fill="white" fill-opacity="0.8"/>
<path d="M20.8321 45.7765L20.8387 45.7686L20.8454 45.7609L38.011 25.9978L20.9812 6.26133C19.8435 5.08962 20.1301 3.30602 21.1266 2.30955L21.1586 2.27747L21.1935 2.24843C22.3235 1.30676 24.1136 1.49309 25.0453 2.60194L43.6852 24.1544C43.9295 24.4048 44.1221 24.686 44.2483 25.0139C44.3774 25.3497 44.417 25.6832 44.417 26C44.417 26.775 44.0321 27.3488 43.8128 27.6759C43.8023 27.6916 43.7921 27.7068 43.7824 27.7213L43.7469 27.7746L43.7049 27.8228L25.0661 49.2575C24.0764 50.5881 22.2652 50.5013 21.2227 49.6589C19.8657 48.6621 19.9647 46.8174 20.8321 45.7765Z" stroke="white" stroke-opacity="0.8" stroke-width="2"/>
</g>
<g id="right arrow_3">
<path d="M24.2836 27.1666C24.5169 26.8166 24.7502 26.4666 24.7502 26C24.7502 25.5333 24.6336 25.1833 24.2836 24.8333L5.61691 3.24999C5.03358 2.54999 3.86691 2.43332 3.16691 3.01665C2.46691 3.59999 2.35024 4.76665 2.93357 5.46665L20.6669 26L2.93357 46.4166C2.35024 47.1166 2.35024 48.2833 3.16691 48.8666C3.86691 49.45 5.03358 49.45 5.61691 48.6333L24.2836 27.1666Z" fill="white" fill-opacity="0.4"/>
<path d="M25.1156 27.7213L25.0802 27.7746L25.0382 27.8228L6.39936 49.2575C5.40969 50.5881 3.59845 50.5012 2.55596 49.6589C1.19893 48.6621 1.29791 46.8174 2.16535 45.7765L2.17189 45.7686L2.1786 45.7609L19.344 25.9981L2.17675 6.12027L2.17099 6.11361L2.16535 6.10684C1.22146 4.97416 1.41089 3.17829 2.52672 2.24843C3.65673 1.30676 5.44682 1.49308 6.37855 2.60193L25.0185 24.1544C25.2628 24.4048 25.4554 24.686 25.5815 25.0139C25.7107 25.3497 25.7502 25.6832 25.7502 26C25.7502 26.775 25.3654 27.3488 25.1461 27.6758C25.1355 27.6916 25.1254 27.7068 25.1156 27.7213Z" stroke="white" stroke-opacity="0.4" stroke-width="2"/>
</g>
</g>
</svg>
