<svg width="40" height="40" viewBox="0 0 40 40" fill="none" xmlns="http://www.w3.org/2000/svg">
<path d="M39.27 35.7325L31.515 27.98C33.1749 25.7601 34.2838 23.1777 34.7504 20.4454C35.2169 17.7131 35.0277 14.909 34.1984 12.2642C33.3691 9.61929 31.9234 7.20923 29.9803 5.23246C28.0372 3.25569 25.6524 1.76875 23.0221 0.894097C20.3919 0.0194392 17.5915 -0.21792 14.8516 0.201565C12.1117 0.62105 9.51058 1.68538 7.26251 3.30691C5.01445 4.92844 3.18372 7.06079 1.92108 9.52835C0.658438 11.9959 4.72305e-06 14.7281 0 17.5C-4.13821e-06 20.7478 0.903818 23.9316 2.61032 26.695C4.31682 29.4584 6.75866 31.6923 9.66258 33.1469C12.5665 34.6014 15.8179 35.2192 19.0529 34.931C22.288 34.6427 25.379 33.46 27.98 31.515L35.73 39.265C35.9619 39.4974 36.2374 39.6819 36.5406 39.8079C36.8439 39.9339 37.169 39.9989 37.4973 39.9992C37.8257 39.9996 38.1509 39.9352 38.4545 39.8099C38.758 39.6846 39.0338 39.5007 39.2663 39.2687C39.4987 39.0368 39.6832 38.7613 39.8092 38.4581C39.9351 38.1548 40.0002 37.8297 40.0005 37.5014C40.0009 37.173 39.9365 36.8478 39.8112 36.5443C39.6858 36.2408 39.5019 35.9649 39.27 35.7325ZM17.5 29.9975C15.8438 30.0209 14.1994 29.7149 12.6624 29.0973C11.1255 28.4797 9.72662 27.5628 8.54711 26.3998C7.36761 25.2369 6.431 23.8511 5.79172 22.3231C5.15244 20.795 4.82323 19.1551 4.82323 17.4987C4.82323 15.8423 5.15244 14.2024 5.79172 12.6744C6.431 11.1463 7.36761 9.76055 8.54711 8.59761C9.72662 7.43467 11.1255 6.51775 12.6624 5.90014C14.1994 5.28253 15.8438 4.97655 17.5 4.99997C20.8152 4.99997 23.9946 6.31693 26.3388 8.66114C28.683 11.0053 30 14.1848 30 17.5C30 20.8152 28.683 23.9946 26.3388 26.3388C23.9946 28.683 20.8152 30 17.5 30V29.9975Z" fill="#DCDCDC"/>
</svg>
